# Blender3D v245 OBJ File: <memory>
# www.blender3d.org
v 0.471319 -0.754707 -0.412275
v 0.466067 -0.747167 -0.404889
v 0.478847 -0.761748 -0.415797
v 0.464668 -0.740926 -0.394986
v 0.467005 -0.737211 -0.385017
v 0.472499 -0.736004 -0.375690
v 0.481110 -0.737712 -0.367822
v 0.491100 -0.742275 -0.363535
v 0.500121 -0.748377 -0.363376
v 0.507648 -0.755417 -0.366899
v 0.514300 -0.769199 -0.384188
v 0.512900 -0.762957 -0.374284
v 0.511963 -0.772913 -0.394156
v 0.506469 -0.774120 -0.403483
v 0.497857 -0.772412 -0.411352
v 0.487868 -0.767849 -0.415639
vn 0.517644 0.754932 -0.402645
vn 0.517633 0.754941 -0.402642
vn 0.517655 0.754929 -0.402636
vn 0.517650 0.754934 -0.402633
vn 0.517649 0.754934 -0.402633
vn 0.517653 0.754931 -0.402634
vn 0.517645 0.754934 -0.402640
vn 0.517647 0.754936 -0.402632
vn 0.517642 0.754938 -0.402636
vn 0.517651 0.754934 -0.402632
vn 0.517650 0.754931 -0.402638
vn 0.517650 0.754932 -0.402637
vn 0.517651 0.754928 -0.402643
usemtl srf16
s off
f 1//1 2//1 3//1
f 4//2 5//2 2//2
f 6//3 2//3 5//3
f 7//4 8//4 6//4
f 9//5 6//5 8//5
f 10//6 11//6 9//6
f 12//7 11//7 10//7
f 13//8 3//8 11//8
f 14//9 15//9 13//9
f 16//10 3//10 15//10
f 2//11 11//11 3//11
f 6//12 11//12 2//12
f 9//12 11//12 6//12
f 13//13 15//13 3//13
